<?xml version="1.0" encoding="UTF-8"?>
<svg xmlns="http://www.w3.org/2000/svg" viewBox="0 0 240 240">
  <defs>
    <style>
      .cls-1 {
        fill: #f7350a;
      }

      .cls-2 {
        fill: #fdb99c;
      }

      .cls-3, .cls-4 {
        fill: #fff;
      }

      .cls-4 {
        fill-rule: evenodd;
      }

      .cls-5 {
        fill: none;
      }

      .cls-6 {
        isolation: isolate;
      }

      .cls-7 {
        fill: #fe4116;
      }

      .cls-8 {
        fill: #ff4213;
      }

      .cls-9 {
        fill: #ff592a;
      }
    </style>
  </defs>
  <g id="_基本园" data-name="基本园" class="cls-6">
    <g id="_基本园-2" data-name="基本园">
      <circle class="cls-1" cx="120" cy="120" r="120"/>
    </g>
  </g>
  <g id="_椭圆_2" data-name="椭圆 2" class="cls-6">
    <g id="_椭圆_2-2" data-name="椭圆 2">
      <circle class="cls-3" cx="120" cy="120" r="84"/>
    </g>
  </g>
  <g id="JIANGXI_UNIVERSITY_OF_FINANCE_AND_ECONOMICS" data-name="JIANGXI UNIVERSITY OF FINANCE AND ECONOMICS">
    <g id="JIANGXI_UNIVERSITY_OF_FINANCE_AND_ECONOMICS-2" data-name="JIANGXI UNIVERSITY OF FINANCE AND ECONOMICS">
      <path class="cls-5" d="M120,24.98c52.95,0,95.87,42.92,95.87,95.87s-42.92,95.87-95.87,95.87S24.13,173.8,24.13,120.85,120,24.98,120,24.98Z"/>
      <path class="cls-3" d="M31.41,162.09l-1.37-.83c.65-.81.74-1.54.45-2.25-.46-1.09-1.27-1.39-2.87-.73l-7.38,3.08-.72-1.71,7.54-3.15c1.95-.81,3.91-.52,4.83,1.69.61,1.46.42,2.72-.49,3.9Z"/>
      <path class="cls-3" d="M18.21,155.97l-.59-1.76,11.16-3.74.59,1.76-11.16,3.74Z"/>
      <path class="cls-3" d="M23.25,143.1l1,3.97,3.5.16.46,1.83-12.37-.92-.52-2.08,10.47-6.65.48,1.91-3.02,1.78ZM21.95,143.89l-1.42.83c-1.14.7-2.33,1.36-3.53,2.04l.02.06c1.39,0,2.73.04,4.07.1l1.65.08-.78-3.12Z"/>
      <path class="cls-3" d="M13.87,139.42l-.25-1.89,6.34-4.78,2.31-1.55v-.08c-1.2.25-2.59.58-3.86.75l-5.44.72-.23-1.74,11.67-1.55.25,1.89-6.37,4.78-2.28,1.54v.08c1.2-.25,2.53-.58,3.8-.75l5.5-.73.23,1.74-11.67,1.55Z"/>
      <path class="cls-3" d="M18.36,126.92c-3.84.06-6.18-2.27-6.23-5.39-.03-1.66.69-2.79,1.43-3.53l1.2.99c-.58.58-1.03,1.31-1.02,2.45.04,2.19,1.75,3.62,4.52,3.57,2.8-.04,4.49-1.37,4.45-3.8-.01-.72-.23-1.44-.61-1.85l-2.77.04.04,2.33-1.52.02-.07-4.01,5.1-.08c.8.77,1.41,2.09,1.44,3.7.05,3.15-2.12,5.47-5.97,5.54Z"/>
      <path class="cls-3" d="M18.39,112.33l-5.97,2.62.19-2.06,2.87-1.16c.57-.24,1.12-.44,1.85-.73v-.08c-.67-.37-1.17-.64-1.69-.96l-2.61-1.64.18-1.94,5.47,3.7,6.27-2.82-.19,2.06-3.06,1.27c-.62.25-1.25.49-2,.79v.06c.68.4,1.26.75,1.82,1.09l2.77,1.77-.18,1.96-5.74-3.93Z"/>
      <path class="cls-3" d="M13.74,103.5l.31-1.83,11.61,1.99-.31,1.83-11.61-1.99Z"/>
      <path class="cls-3" d="M22.14,95.7l-6.43-1.95.54-1.78,6.55,1.99c2.54.77,3.67.01,4.1-1.4.43-1.42-.08-2.71-2.62-3.48l-6.55-1.99.52-1.71,6.43,1.95c3.67,1.11,4.52,3.21,3.77,5.7-.76,2.49-2.63,3.78-6.31,2.67Z"/>
      <path class="cls-3" d="M19.82,81.17l.77-1.74,7.9-.77,2.78-.11.03-.07c-1.15-.4-2.51-.85-3.68-1.37l-5.01-2.22.71-1.61,10.76,4.77-.77,1.74-7.93.75-2.75.13-.03.07c1.15.4,2.45.82,3.62,1.34l5.07,2.25-.71,1.61-10.76-4.77Z"/>
      <path class="cls-3" d="M25.29,69.62l.9-1.62,10.31,5.71-.9,1.62-10.31-5.71Z"/>
      <path class="cls-3" d="M27.31,65.87l1.08-1.65,6.06,1.88c1.34.4,2.45.82,3.81,1.22l.04-.07c-.92-1.08-1.72-1.95-2.64-3.01l-4.14-4.8,1.04-1.58,7.83,9.54-1.2,1.83-11.88-3.37Z"/>
      <path class="cls-3" d="M34.21,55.75l4.37-5.41,1.21.98-3.21,3.97,2.55,2.06,2.71-3.36,1.22.99-2.71,3.36,2.96,2.39,3.32-4.1,1.22.99-4.48,5.55-9.15-7.4Z"/>
      <path class="cls-3" d="M54.04,51.22l-5.25-1.46-1.34,1.35,3.37,3.35-1.31,1.32-8.34-8.31,2.72-2.73c1.72-1.72,3.62-2.41,5.42-.61,1.29,1.29,1.37,2.75.65,4.13l5.57,1.48-1.48,1.49ZM46.39,50.06l1.25-1.26c1.21-1.21,1.36-2.37.36-3.37-1.01-1-2.02-.7-3.22.52l-1.25,1.26,2.87,2.86Z"/>
      <path class="cls-3" d="M55.43,47.83l.04-1.68c1.19.12,2.43-.18,3.31-.9,1.11-.9,1.3-1.92.68-2.69-.68-.83-1.51-.59-2.66-.28l-1.71.48c-1.18.34-2.73.44-3.81-.88-1.17-1.44-.78-3.55.96-4.96,1.07-.87,2.44-1.24,3.71-1.09v1.53c-1-.05-1.88.16-2.69.81-.93.76-1.18,1.7-.58,2.43.64.78,1.61.49,2.6.18l1.69-.48c1.45-.42,2.78-.38,3.87.96,1.19,1.47.94,3.65-1.06,5.27-1.25,1.02-2.83,1.47-4.34,1.3Z"/>
      <path class="cls-3" d="M58.01,32.83l1.53-1.06,6.7,9.68-1.53,1.06-6.7-9.68Z"/>
      <path class="cls-3" d="M65.71,29.68l-2.98,1.74-.78-1.34,7.58-4.43.78,1.34-3,1.75,5.16,8.82-1.6.94-5.16-8.82Z"/>
      <path class="cls-3" d="M77.2,30.08l-6.27-5.16,1.8-.83,2.54,2.26c.7.65,1.35,1.25,2.09,1.89l.06-.03c-.03-.97-.02-1.88-.07-2.82l-.06-3.41,1.76-.81-.16,8.13,1.87,4.05-1.68.78-1.87-4.05Z"/>
      <path class="cls-3" d="M86.5,24.55c-1.06-3.64.31-6.41,3.22-7.26,2.9-.85,5.57.74,6.63,4.38,1.06,3.64-.31,6.49-3.21,7.34-2.9.85-5.58-.82-6.64-4.46ZM94.52,22.21c-.78-2.66-2.48-3.91-4.35-3.37s-2.62,2.52-1.84,5.17,2.48,3.99,4.36,3.45,2.61-2.6,1.83-5.25Z"/>
      <path class="cls-3" d="M98.4,15.33l6.87-1.2.27,1.53-5.04.88.62,3.55,4.29-.75.27,1.53-4.29.75.88,5-1.83.32-2.03-11.6Z"/>
      <path class="cls-3" d="M112.44,13.42l6.97-.29.06,1.55-5.12.21.15,3.6,4.35-.18.07,1.55-4.35.18.21,5.07-1.85.08-.49-11.77Z"/>
      <path class="cls-3" d="M122.35,13.23l1.85.05-.35,11.77-1.86-.05.35-11.77Z"/>
      <path class="cls-3" d="M128.31,13.43l1.89.22,3.08,7.32.93,2.62h.08c.05-1.21.07-2.64.22-3.91l.64-5.45,1.75.21-1.37,11.7-1.89-.22-3.07-7.35-.94-2.59h-.08c-.05,1.21-.06,2.58-.21,3.85l-.65,5.52-1.75-.2,1.37-11.7Z"/>
      <path class="cls-3" d="M144.63,24.69l-3.99-.93-1.75,3.04-1.84-.43,6.49-10.58,2.09.49,1.12,12.36-1.92-.45-.2-3.5ZM144.53,23.17l-.09-1.65c-.1-1.34-.14-2.7-.2-4.07h-.06c-.63,1.22-1.29,2.4-1.95,3.55l-.83,1.43,3.13.73Z"/>
      <path class="cls-3" d="M152.21,18.02l1.79.64,1.35,7.82.32,2.76.08.03c.32-1.18.66-2.57,1.09-3.77l1.85-5.17,1.66.59-3.96,11.08-1.79-.64-1.34-7.85-.33-2.73-.08-.03c-.32,1.18-.64,2.51-1.07,3.71l-1.87,5.23-1.66-.59,3.96-11.08Z"/>
      <path class="cls-3" d="M161.26,27.74c1.7-3.44,4.82-4.47,7.49-3.15,1.32.65,2.04,1.79,2.34,2.82l-1.43.61c-.27-.83-.74-1.54-1.6-1.97-1.82-.9-3.84,0-5.06,2.48-1.24,2.51-.82,4.63,1.04,5.55.96.48,1.92.41,2.89.04l.37,1.49c-1.33.56-2.67.57-4.04-.1-2.65-1.31-3.71-4.3-2-7.76Z"/>
      <path class="cls-3" d="M174.7,28.07l5.88,3.72-.83,1.31-4.31-2.73-1.75,2.77,3.65,2.31-.84,1.33-3.65-2.31-2.03,3.22,4.46,2.82-.84,1.32-6.03-3.81,6.29-9.95Z"/>
      <path class="cls-3" d="M185.65,46.41l-3.12-2.65-2.94,1.91-1.44-1.22,10.59-6.46,1.64,1.39-4.64,11.51-1.5-1.27,1.42-3.21ZM186.25,45.01l.67-1.51c.52-1.23,1.1-2.46,1.68-3.71l-.05-.04c-1.12.81-2.24,1.56-3.36,2.29l-1.39.9,2.45,2.08Z"/>
      <path class="cls-3" d="M195.4,43.9l1.31,1.39-2.35,7.58-.97,2.61.05.06c.82-.9,1.76-1.98,2.69-2.86l3.99-3.76,1.21,1.28-8.57,8.07-1.31-1.39,2.38-7.6.95-2.59-.05-.06c-.82.9-1.71,1.94-2.64,2.82l-4.04,3.81-1.21-1.28,8.57-8.07Z"/>
      <path class="cls-3" d="M204.21,53.68l1.82,2.46c2.15,2.91,1.77,5.75-1.32,8.04-3.07,2.27-6,1.87-8.09-.96l-1.87-2.53,9.47-7ZM197.71,62.13c1.5,2.03,3.51,2.24,5.86.5,2.37-1.75,2.68-3.67,1.18-5.7l-.64-.86-7.04,5.2.64.86Z"/>
      <path class="cls-3" d="M213.47,67.32l3.28,6.14-1.37.73-2.4-4.5-2.89,1.55,2.04,3.81-1.38.74-2.04-3.81-3.36,1.79,2.49,4.66-1.38.74-3.36-6.29,10.39-5.55Z"/>
      <path class="cls-3" d="M212.66,78.6c3.56-1.45,6.57-.15,7.69,2.6.55,1.36.34,2.69-.12,3.66l-1.48-.49c.35-.8.47-1.64.11-2.53-.77-1.88-2.87-2.55-5.43-1.5-2.59,1.05-3.68,2.91-2.9,4.84.4.99,1.16,1.58,2.14,1.94l-.71,1.36c-1.36-.46-2.38-1.35-2.95-2.75-1.12-2.74.07-5.68,3.64-7.13Z"/>
      <path class="cls-3" d="M216.81,88.84c3.66-1.01,6.4.41,7.2,3.33s-.83,5.55-4.48,6.56c-3.66,1.01-6.48-.41-7.29-3.32s.91-5.56,4.57-6.57ZM219.02,96.9c2.67-.73,3.95-2.41,3.43-4.3-.52-1.88-2.47-2.66-5.14-1.92s-4.03,2.42-3.51,4.3c.52,1.88,2.55,2.65,5.22,1.92Z"/>
      <path class="cls-3" d="M225.92,101.04l.27,1.88-6.28,4.85-2.29,1.58v.08c1.2-.27,2.59-.62,3.86-.8l5.43-.78.25,1.74-11.66,1.68-.27-1.88,6.32-4.86,2.26-1.57v-.08c-1.2.27-2.53.61-3.79.79l-5.5.79-.25-1.74,11.66-1.68Z"/>
      <path class="cls-3" d="M221.68,113.62c3.79-.08,6.1,1.97,6.16,5,.06,3.02-2.17,5.18-5.96,5.25s-6.18-1.99-6.24-5.01c-.06-3.02,2.25-5.16,6.04-5.24ZM221.85,121.97c2.77-.05,4.42-1.37,4.38-3.32-.04-1.95-1.74-3.18-4.51-3.12-2.77.06-4.5,1.35-4.46,3.3s1.82,3.19,4.59,3.14Z"/>
      <path class="cls-3" d="M227.55,127.76l-.23,2.11-6.15,1.49c-.81.18-1.63.33-2.46.52v.08c.76.36,1.53.67,2.28,1.02l5.68,2.77-.24,2.13-11.7-1.29.19-1.72,5.79.64c1.05.12,2.54.43,3.6.64v-.06s-2.59-1.24-2.59-1.24l-5.36-2.65.13-1.14,5.81-1.44,2.8-.62v-.06c-1.07-.04-2.59-.06-3.64-.18l-5.79-.64.18-1.65,11.7,1.29Z"/>
      <path class="cls-3" d="M225.58,142.01l-.38,1.82-11.53-2.4.38-1.82,11.53,2.4Z"/>
      <path class="cls-3" d="M218.82,145.48c3.68,1.08,5.24,3.97,4.4,6.83-.41,1.41-1.41,2.32-2.37,2.79l-.85-1.3c.77-.41,1.39-.99,1.66-1.91.57-1.95-.66-3.78-3.31-4.56-2.69-.79-4.7-.01-5.28,1.98-.3,1.03-.08,1.96.46,2.85l-1.4.62c-.78-1.21-1.02-2.53-.6-3.99.83-2.84,3.59-4.4,7.29-3.31Z"/>
      <path class="cls-3" d="M211.66,154.11l.77,1.49c-1.11.46-2.05,1.32-2.48,2.37-.54,1.32-.23,2.31.69,2.69.99.41,1.61-.2,2.46-1.02l1.27-1.24c.88-.87,2.19-1.69,3.77-1.04,1.72.71,2.38,2.75,1.52,4.82-.52,1.27-1.55,2.25-2.74,2.73l-.72-1.35c.89-.43,1.57-1.03,1.96-1.99.46-1.11.22-2.05-.65-2.41-.93-.38-1.65.34-2.37,1.08l-1.25,1.23c-1.08,1.06-2.26,1.66-3.86,1-1.75-.72-2.57-2.75-1.58-5.14.62-1.49,1.78-2.64,3.2-3.21Z"/>
    </g>
  </g>
  <g id="_形状_1" data-name="形状 1" class="cls-6">
    <g id="_形状_1-2" data-name="形状 1">
      <path class="cls-9" d="M74.16,69.12c-1.6,13.92-6.21,80.36,45.84,87.84V50.4s-44.24,4.8-45.84,18.72Z"/>
    </g>
  </g>
  <g id="_形状_2" data-name="形状 2" class="cls-6">
    <g id="_形状_2-2" data-name="形状 2">
      <path class="cls-7" d="M165.83,69.12c-1.6-13.92-45.84-18.72-45.84-18.72v106.56c52.05-7.48,47.44-73.92,45.84-87.84Z"/>
    </g>
    <circle class="cls-2" cx="119.55" cy="97.03" r="32.38"/>
    <circle class="cls-9" cx="120" cy="97.03" r="23.34"/>
  </g>
  <g id="_江财网安社" data-name="江财网安社">
    <g>
      <rect class="cls-5" x="54.68" y="167.33" width="130.61" height="19.91"/>
      <path class="cls-8" d="M74.19,171.03c.15,0,.25.21.3.64.03.11.25.29.66.54.39.27.58.62.58,1.06,0,.21-.13.63-.38,1.26-.43,1.27-.7,2.58-.82,3.94,1.23-1.37,2.23-3.14,3.02-5.3-.41,2.99-1.25,5.73-2.5,8.22,0,.53-.19.8-.56.8-.27,0-.52-.27-.76-.8-.2-.52-.3-.97-.3-1.34,0-.27.03-.55.1-.84.17-2.05.39-3.71.66-4.96-.6-.32-.9-.77-.9-1.34s.09-1.05.26-1.38c.17-.33.39-.5.64-.5ZM74.85,170.53c.43-.35.79-.72,1.1-1.12-.49-1.2-.74-1.94-.74-2.22,0-.36.11-.54.34-.54.09,0,.27.11.52.32.23.16.57.35,1.04.56.63.28.97.93,1.04,1.96,0,.56-.19.84-.56.84-.19,0-.43-.04-.74-.12-.69.15-1.36.25-2,.32ZM78.21,178.89c.91-.08,1.75-.47,2.54-1.16.67-.72,1.1-2.01,1.3-3.86-.29-.36-.44-.71-.44-1.04,0-.2.03-.38.08-.54-.31.05-.69.08-1.16.08-.41,0-.99-.25-1.74-.74-.29-.27-.44-.47-.44-.6,0-.24.11-.36.34-.36l.76.14c1.97-.56,3.45-.97,4.44-1.24.64-.53,1.06-.8,1.26-.8.29,0,.63.11,1.02.32.47.21.7.59.7,1.14s-.33.88-1,1.04l-1.16.28-2.34.6c.2.32.5.52.9.6.25.07.44.18.55.33s.17.36.17.63c0,.39-.2,1.19-.6,2.42-.17.53-.79,1.21-1.86,2.04,1.01-.05,2.35-.16,4.02-.32.57-.49,1.01-.74,1.3-.74s.67.19,1.18.58c.47.39.7.84.7,1.36,0,.67-.29,1-.88,1-1.73-.27-3.31-.4-4.72-.4-.87,0-1.99.27-3.36.82-.39.16-.75.24-1.1.24s-.78-.18-1.3-.54c-.35-.27-.52-.56-.52-.88s.15-.5.44-.5l.92.1Z"/>
      <path class="cls-8" d="M108.97,170.01c0,.43-.25.71-.76.86-.51.13-1.17.28-1.98.44.49.16.74.45.74.88,0,.39-.37.93-1.12,1.64,0,2.44.07,4.77.2,6.98,0,.29-.13.71-.4,1.24-.36.72-.71,1.08-1.04,1.08-.39,0-.63-.33-.72-1-1.15-.73-2.11-1.82-2.88-3.26-1.07.47-1.97.71-2.7.72l-.02.12c0,.84-.25,1.26-.74,1.26-.71,0-1.19-.29-1.46-.88-.33-.79-.67-1.31-1.02-1.58l-.26-.24c-.25.64-.59,1.21-1.02,1.7s-.8.83-1.12,1.02c-.11.05-.26.14-.47.25-.21.11-.37.19-.49.23-.12.04-.25.06-.4.06-.4,0-.6-.1-.6-.3,0-.07.02-.11.06-.12.04-.01.09-.02.16-.03.07,0,.12-.01.16-.01.49-.25.96-.64,1.39-1.16.43-.52.76-1.09.97-1.72.4-1.13.66-2.2.78-3.19.12-.99.17-1.81.16-2.45-.07-.11-.14-.21-.22-.31-.08-.1-.14-.19-.17-.26-.03-.07-.05-.17-.05-.29,0-.16.05-.31.14-.44.09-.13.26-.27.5-.4.25,0,.55.15.9.46.19.19.32.36.41.52.09.16.13.33.13.5,0,.05,0,.2,0,.44,0,.24-.03.49-.11.76-.05.23-.1.47-.15.74-.05.27-.08.47-.11.6-.23,1.12-.43,2.01-.62,2.68.37.09.81.26,1.31.5s.92.51,1.25.8c.65-.71,1.19-1.43,1.6-2.18-.11.48-.32,1.2-.64,2.16,1.84-1.17,3.72-3.11,5.64-5.82l-.04-1.34c-1.84.56-2.97.84-3.38.84-.15-.01-.49-.05-1.02-.1-.23,0-.34-.07-.34-.22,0-.52,1.55-1.29,4.66-2.32l-.04-2.36c-.55-.69-.82-1.13-.82-1.32,0-.17.13-.32.38-.44.23-.11.54-.16.94-.16.28,0,.66.24,1.14.72.53.49.8.87.8,1.14,0,.31-.13.67-.38,1.1l-.04.68c.49-.35.86-.52,1.1-.52.43,0,.81.11,1.14.34.44.28.66.6.66.96ZM91.99,169.07c-.01-.05-.02-.11-.02-.18,0-.09.02-.16.07-.21s.1-.07.17-.07.13.03.18.08l.46.22c1.11-.47,2.11-.81,3.02-1.04.32-.19.64-.28.96-.28.37,0,.77.21,1.2.62.47.45.7.81.7,1.06s-.12.52-.36.84c-.15.76-.22,1.58-.22,2.46l.04,4.04c0,.4-.12.79-.36,1.18-.07.01-.17.02-.3.02-.41,0-.75-.1-1.01-.29-.26-.19-.43-.4-.51-.61-.17-.31-.26-.55-.26-.74,0-.15.05-.26.16-.34l.3-.38c.11-1.81.16-3.11.16-3.9,0-1.01-.05-1.89-.16-2.64l-2.76.58c.17.45.26,1.01.26,1.68l-.16,4.78v.46l.02.5c0,.19-.04.36-.11.53-.07.17-.21.36-.41.57-.04.01-.12.05-.23.1-.11.05-.22.08-.33.08-.13,0-.26-.05-.38-.16-.08-.16-.12-.39-.12-.68l.02-.5c.01-.11.02-.25.02-.44l.04-.84c.08-2.59.13-4.34.16-5.26-.04-.52-.12-.93-.24-1.24ZM104.21,175.91c-.93,1.05-1.84,1.93-2.72,2.62.73.56,1.64.88,2.72.96v-3.58Z"/>
      <path class="cls-8" d="M114.07,167.87c.05.43.23.75.52.98.51-.45.88-.71,1.12-.78,2.36-.56,4.82-1.01,7.38-1.34,1.2-.35,1.85-.52,1.94-.52.19,0,.47.17.86.5.67.64,1,1.14,1,1.5,0,.27-.16.67-.48,1.2-.16,1.28-.24,3.19-.24,5.72.17,2.25.26,3.51.26,3.78,0,1.81-.29,3.13-.86,3.96-.27.28-.54.42-.82.42-.31,0-.58-.23-.82-.68-1.45-.84-2.65-2.04-3.6-3.6.83.69,1.83,1.04,3,1.04.48,0,.85-.07,1.12-.2-.09-4.52-.14-8.47-.14-11.86-.89,0-3.01.27-6.36.82-.89.28-1.51.42-1.86.42-.36-.05-.61-.08-.76-.08-.11,0-.27.05-.48.16.23.65.34,1.23.34,1.74,0,.69-.09,2.57-.26,5.64l.24-.36.26-1.26c.09-1.4.17-2.22.24-2.46.04-.2.27-.3.68-.3.31,0,.64.09,1,.26.25-.67.44-1.33.56-2-.33-.44-.5-.75-.5-.92,0-.23.19-.34.58-.34.28,0,.52.05.72.14.23.09.41.29.54.58.13.24.2.54.2.9,0,.13-.25.6-.76,1.4-.15.36-.29.73-.44,1.12l.3.52c.48-.56.99-1.27,1.54-2.14l-.2.78c.43.04.91.17,1.46.4.21-.77.37-1.61.46-2.5-.49-.07-.74-.15-.74-.24,0-.11.17-.31.52-.6.23-.21.48-.32.76-.32.35,0,.73.22,1.14.66.2.29.3.49.3.58,0,.23-.17.59-.5,1.1-.29.73-.57,1.39-.84,1.96,1.08.85,1.62,1.82,1.62,2.9,0,.72-.19,1.08-.58,1.08-.13,0-.38-.07-.74-.2-.79.13-1.41.2-1.86.2.49-.31,1.01-.75,1.54-1.34-.17-.37-.39-.73-.64-1.06-.35.72-.81,1.43-1.38,2.14-.39.39-.72.58-1,.58-.09,0-.2-.03-.32-.1-.09-.11-.14-.22-.14-.34,0-.13.11-.46.34-.98.08-.71.19-1.41.32-2.1.07.44.19.85.36,1.22.33-.39.64-.89.92-1.52-.31-.31-.71-.6-1.2-.88-.15.49-.32.97-.52,1.42-.07.48-.13.88-.2,1.2-.04.17-.17.26-.4.26-.44,0-.8-.31-1.08-.94-.93,1.83-1.54,2.74-1.82,2.74-.29,0-.53-.03-.7-.1,0,2.01-.03,3.13-.08,3.34-.15.39-.34.58-.58.58-.28,0-.56-.23-.84-.7-.25-.55-.38-1.16-.38-1.84,0-.28.03-.77.1-1.48.29-2.89.48-5.23.56-7-.12-1.03-.18-1.67-.18-1.92,0-.81.09-1.22.28-1.22.12,0,.19.09.22.28ZM115.99,175.43l.78-1.58c-.08-.33-.35-.59-.82-.78l-.18,1.34c0,.31.07.65.22,1.02Z"/>
      <path class="cls-8" d="M138.95,171.45c.27.21.44.34.52.38.27.21.44.51.51.9s.11.73.11,1.04-.13.71-.38,1.18l1.02-.2c-.07-.53-.1-.9-.1-1.1.03-.2.07-.35.14-.44.07-.09.17-.14.3-.14.31,0,.73.29,1.26.86.12.17.18.38.18.62.92-.11,1.71-.17,2.36-.2.48-.28.85-.42,1.12-.42.37,0,.96.36,1.76,1.08.21.23.32.54.32.94,0,.63-.25.94-.76.94-.32,0-.89-.09-1.72-.28-.73-.09-1.89-.19-3.48-.28-.16.4-.36.82-.6,1.26.47.65,1.02,1.37,1.66,2.16,1.07,1.11,1.6,1.91,1.6,2.4-.01.69-.31,1.04-.9,1.04-.36,0-.69-.14-.98-.42-1.04-.92-2.11-1.73-3.2-2.42-1.45,1.52-2.85,2.28-4.2,2.28-1.21,0-2.08-.44-2.6-1.32l.06-.24c.71.36,1.31.54,1.82.54.88,0,1.97-.67,3.26-2l-.48-.16c-.52.12-.93.18-1.24.18-.21,0-.38-.08-.49-.25s-.17-.41-.17-.73c0-.45.26-.79.78-1l.3-.68c-1.28.45-2.47.97-3.58,1.56-.33.19-.59.28-.76.28-.21,0-.32-.11-.32-.34,0-.27.19-.55.58-.86,1.37-.91,2.95-1.65,4.74-2.22.52-1.04.78-2.03.78-2.98,0-.35-.03-.66-.08-.94.12-.16.25-.24.4-.24.11,0,.26.07.46.22ZM134.33,168.57c.15,0,.33.32.54.96.11.36.17.95.18,1.76,3.75-1.63,6.61-2.49,8.6-2.58.72-.2,1.15-.3,1.3-.3.17,0,.4.15.68.44.6.69.9,1.19.9,1.5,0,.4-.19.6-.56.6l-.38-.04c-1.37.67-2.41,1-3.12,1-.43,0-1.08-.13-1.96-.4,1.23-.4,2.1-.88,2.62-1.44-2.61,0-5.31,1.05-8.08,3.14-.36.32-.71.87-1.06,1.66-.11.15-.27.22-.48.22-.33,0-.59-.17-.78-.52-.17-.52-.26-.96-.26-1.32,0-.24.24-.85.72-1.82.36-.79.67-1.53.92-2.24.04-.41.11-.62.22-.62ZM136.85,168.27c.73-.21,1.29-.45,1.68-.72-.12-.12-.33-.29-.62-.5-.52-.36-.78-.62-.78-.78,0-.25.09-.41.26-.46.21-.08.73-.12,1.56-.12.29,0,.63.11,1.02.32.69.64,1.04,1.29,1.04,1.96,0,.56-.25.84-.76.84-.13,0-.42-.09-.86-.28-.88,0-1.73-.09-2.54-.26ZM137.77,178.33c.53.07.92.12,1.16.16.39-.49.77-1.17,1.16-2.04l-1.24.14c-.39.59-.75,1.17-1.08,1.74ZM140.77,178.89c.29.09.69.25,1.2.46-.16-.52-.37-.99-.64-1.42l-.56.96Z"/>
      <path class="cls-8" d="M154.71,174.49c-.55.35-.97.52-1.28.52-.23,0-.63-.19-1.22-.58-.4-.33-.6-.62-.6-.86,0-.31.13-.46.4-.46l.4.18c1.11-.47,2.26-1.06,3.46-1.78.36-.44.65-.66.86-.66.28,0,.53.1.74.3.51.4.76.83.76,1.28,0,.29-.24.66-.72,1.1-.2.76-.32,1.43-.36,2,1.21-1,2.1-1.54,2.66-1.62.67-.12,1.5-.45,2.5-.98v-3.74c-.65-.67-.98-1.11-.98-1.32,0-.39.33-.63,1-.74.41,0,.81.14,1.2.42.8.56,1.2.99,1.2,1.28s-.11.62-.32,1.02l-.1,1.24c.27.2.62.36,1.06.48.8.21,1.2.64,1.2,1.28,0,.36-.25.67-.76.94-.49.24-1.07.47-1.74.7-.05,2-.35,3.49-.9,4.46.57-.04,1.35-.12,2.32-.24.64-.53,1.06-.8,1.26-.8.27,0,.69.23,1.26.68.4.33.6.73.6,1.18,0,.64-.29.96-.86.96-1.4-.15-2.3-.22-2.7-.22-1.65,0-3.06.14-4.22.42-.63.21-1.05.32-1.26.32-.35,0-.81-.22-1.4-.66-.25-.2-.38-.46-.38-.78,0-.19.1-.28.3-.28l.8.26c1.35-.21,2.22-.44,2.62-.68.43-.27.68-1.63.76-4.1-.43.07-.75.1-.98.1-.35,0-.65-.05-.92-.14-.63-.19-1.01-.28-1.16-.28-.2.01-.39.14-.58.38-.35.61-.87,1.27-1.58,1.96-.01.65-.02,1.18-.02,1.58,0,.64.02,1.42.06,2.34,0,.45-.11,1-.34,1.64-.31.67-.57,1-.8,1-.37,0-.59-.33-.66-.98-.55-1.15-.95-2.17-1.2-3.08-.33.25-.61.52-.84.8-.2.35-.4.52-.6.52-.4,0-.63-.43-.68-1.28,0-.83.22-1.34.66-1.54,1.13-1.28,1.97-2.29,2.52-3.04.15-.6.42-.9.82-.9l.02-.32c-.33.17-.76.41-1.28.72ZM156.11,168.17c-.32-.32-.73-.61-1.24-.86-.2-.08-.3-.23-.3-.44,0-.2.08-.33.24-.4.73-.28,1.22-.42,1.46-.42.35,0,.93.36,1.76,1.08.37.36.56.79.56,1.28,0,.71-.21,1.06-.62,1.06-.31,0-.59-.03-.86-.08-1.49.55-2.5.82-3.02.82.91-.72,1.58-1.4,2.02-2.04ZM155.61,180.77c.08-.84.14-1.69.18-2.56-.52.4-1.03.79-1.54,1.18.19.45.64.91,1.36,1.38ZM155.81,176.49l.04-.58c-.31.36-.62.78-.94,1.26.33-.2.63-.43.9-.68Z"/>
    </g>
  </g>
  <g id="_图层_10" data-name="图层 10">
    <g>
      <path id="svg_5" data-name="svg 5" class="cls-4" d="M42.21,178.95c.1-.31.23-.62.37-.91.2-.27.41-.54.64-.78l.5-.57.38-.43c.3-.31.58-.63.9-.91.32-.28.82-.7,1.19-1.03.2-.15.42-.3.63-.44.21-.14.36-.21.52-.33.23-.17.44-.36.64-.56,0,0,.12-.13.06-.17-.06-.04-.36-.08-.53-.14-.12-.07-.24-.12-.37-.17-.25-.02-.5-.02-.75,0-.35,0-.7.03-1.04.08-.13,0-.23.13-.36.15-.13.02-.45,0-.68.07-.19.02-.37.05-.56.1-.35.05-.7.13-1.03.24-.25.1-.48.24-.69.4-.17.13-.32.28-.44.45-.13.19-.23.4-.31.62-.1.29-.18.59-.24.89-.06.25-.06.52-.11.78-.05.26-.08.44-.14.66-.06.23-.2.65-.32.98-.12.33-.14.33-.2.51,0,.11,0,.22,0,.33-.02.05-.02.1,0,.15.05.06.11.1.18.13.22.04.43.07.65.07h.46c.09.01.19.01.28,0,.09-.02.18-.04.26-.08.03-.03.06-.06.08-.1h.01s0-.01,0-.01ZM32.71,180.72c-.08-.07-.18-.13-.21-.23-.03-.1-.03-.2,0-.3.03-.1.09-.19.17-.26.25-.2.52-.38.81-.53.32-.19.65-.35,1-.47.26-.08.53-.13.79-.14h1.09c.14.03.29.03.43,0,.12-.05.23-.14.31-.25.08-.1.14-.23.15-.36.08-.33.12-.66.2-1,.08-.33.21-.76.28-1.19.04-.15.04-.3,0-.45,0-.04-.04-.08-.08-.08-.27,0-.53.03-.8.08-.28.06-.55.14-.81.25-.26.11-.52.23-.77.37-.18.09-.36.19-.53.3-.45.28-.89.59-1.32.91-.43.32-.81.61-1.19.91-.38.31-.52.38-.76.58s-.5.5-.76.74c-.18.16-.36.31-.56.44-.16.08-.33.15-.51.19-.28.09-.59.15-.88.25-.28.09-.76.23-1.13.36-.37.13-.53.19-.8.31-.17.08-.32.18-.46.3-.15.09-.28.21-.38.34-.06.08-.1.18-.11.28-.03.24-.03.49,0,.74.04.23.11.46.2.68.06.12.15.22.26.29.1.07.21.1.33.11.18.04.37.04.55,0,.21-.06.38-.21.58-.28.39-.17.8-.31,1.19-.44.63-.21,1.27-.45,1.91-.63.24-.06.48-.1.72-.12.4,0,.82.08,1.19,0,.2-.04.4-.11.58-.21l.89-.3c.25-.04.49-.12.72-.21.1-.05.16-.15.18-.26,0-.1-.04-.2-.12-.27-.08-.06-.17-.1-.26-.11h-.88c-.24,0-.48-.04-.71-.09-.16-.06-.31-.13-.46-.21h-.06s0-.01,0-.01ZM37.51,191.68c-.09.02-.18.02-.26,0-.07-.03-.12-.08-.15-.14-.12-.18-.23-.38-.33-.56-.09-.17-.18-.33-.28-.49-.1-.13-.21-.25-.33-.36-.18-.17-.38-.32-.57-.49l-.65-.52c-.33-.25-.68-.51-1.02-.75l-1.04-.74c-.2-.12-.39-.26-.59-.36-.2-.09-.29-.06-.42-.12-.07-.03-.13-.07-.19-.11l-.28-.11c-.37-.14-.74-.27-1.12-.39-.38-.12-.63-.17-.94-.28-.08-.04-.14-.1-.19-.17-.03-.06-.03-.14,0-.2.04-.19.13-.36.25-.51.12-.15.25-.29.4-.4.14-.11.28-.2.44-.28l.76-.37c.25-.11.49-.23.75-.31.11-.02.21-.02.32,0,.19.06.37.14.53.24l.97.51c.2.12.39.26.59.39.2.13.38.27.59.38.1.06.21.09.32.08.13.02.25.02.38,0,.3-.09.59-.2.88-.33.28-.13.56-.28.82-.45.17-.1.32-.21.46-.34.05-.04.09-.11.09-.18.01-.22.01-.44,0-.65-.03-.45-.03-.91,0-1.36.03-.19.11-.37.23-.53.12-.21.27-.4.44-.57.05-.09.13-.17.23-.21.09-.04.19-.04.28,0,.13.08.25.18.36.28.4.33.78.69,1.19,1.02.16.12.32.23.5.33l.57.3c.18.09.34.19.5.31.32.28.58.62.89.91s.5.45.77.66c.27.21.55.34.81.53.16.09.3.19.44.31.08.1.15.21.2.33.04.1.04.21,0,.31-.12.25-.28.47-.46.68-.09.11-.2.21-.32.29-.12.08-.25.13-.37.2-.13.11-.28.2-.44.27-.13.05-.27.05-.4,0-.13-.07-.18-.23-.26-.34s-.24-.32-.38-.46c-.11-.13-.24-.24-.39-.32-.17-.07-.35-.1-.53-.08-.27.03-.53.07-.8.14-.4.08-.8.18-1.19.3-.24.09-.47.21-.69.33-.3.15-.6.31-.88.5-.07.05-.13.13-.15.21-.03.08-.03.17,0,.25.07.14.16.27.27.38.25.24.52.45.81.65.24.17.49.31.74.47.16.11.31.22.45.36.05.06.07.13.08.2.02.06.02.13,0,.19-.12.1-.25.19-.39.25-.24.12-.5.2-.75.3-.25.09-.56.17-.82.28-.26.12-.51.33-.71.33Z"/>
      <path id="svg_6" data-name="svg 6" class="cls-4" d="M69.34,202.2c-.17.14-.27.34-.44.49-.17.14-.42.27-.59.44-.23.22-.44.45-.64.7-.13.15-.24.3-.33.47-.02.06-.02.13,0,.19.02.05.06.08.11.11.1,0,.2,0,.3.06.09.06.23.15.36.19.26.02.53.02.8,0,.11.02.22.02.33,0,.12-.04.22-.1.31-.19.17-.15.32-.31.46-.49.24-.28.47-.59.71-.89.15-.19.28-.39.39-.61.02-.08.02-.17,0-.25-.01-.06-.05-.11-.11-.13-.14,0-.28,0-.43-.06-.08-.03-.15-.07-.21-.12-.1-.05-.21-.1-.32-.13h-.23c-.1.02-.2.04-.3.08-.08.02-.15.06-.2.12h.04ZM62.67,207.88c.16.02.32.02.47,0,.13,0,.25-.02.37-.08.15-.09.29-.19.42-.32.26-.25.49-.52.74-.78.25-.26.25-.27.39-.4.21-.2.48-.31.77-.3.09.02.19.04.27.08.09.03.18.07.27.11,0,0,.12.08.18.11.09.03.17.07.25.12.08.06.15.14.19.24.03.08.03.18,0,.26-.03.14-.09.28-.17.4-.12.19-.24.37-.38.55-.18.24-.36.47-.55.7-.18.22-.38.43-.58.63-.2.19-.42.38-.64.56-.14.11-.3.2-.46.27-.06.02-.12.02-.18,0-.06.02-.12.02-.18,0-.2-.08-.39-.19-.59-.28-.2-.09-.63-.37-.96-.53-.33-.17-.56-.23-.84-.34-.19-.07-.37-.15-.55-.24-.1-.06-.18-.14-.23-.25-.04-.15-.04-.31,0-.46,0-.36.08-.71.14-1.07.06-.36.11-.42.15-.63.05-.21,0-.39.08-.58.04-.14.11-.28.19-.4.1-.18.23-.35.38-.5.1-.1.23-.18.37-.23.08-.02.16-.02.24,0,.15.04.29.11.42.2.08.07.14.17.17.28.02.07.02.14,0,.21,0,.17-.11.34-.18.51-.07.17-.27.43-.4.64-.06.09-.11.18-.15.27-.04.19-.04.39,0,.58.03.12.09.23.15.33.05.09.12.16.2.23.09.04.19.06.28.07l-.06.05h0ZM67.9,209.61c-.25.25-.51.5-.75.76-.16.18-.31.37-.44.57-.05.06-.08.13-.1.2-.02.07-.02.14,0,.2.09.13.2.24.33.33.11.09.23.15.37.18.22.03.44.03.66,0,.2-.02.39-.07.58-.14.34-.13.68-.28,1.01-.45.25-.12.49-.25.71-.4.28-.21.55-.43.8-.68.24-.24.44-.51.65-.77.11-.12.21-.26.3-.4.03-.08.03-.18,0-.26-.01-.07-.05-.13-.11-.18-.13-.1-.28-.19-.43-.26l-.47-.24-.34-.08h-.29c-.15-.01-.3-.01-.45,0-.15.05-.3.12-.44.21-.21.15-.38.34-.58.51l-.65.52-.42.36.05.02h0ZM65.96,215.54c-.16.05-.32.08-.49.07-.09-.01-.18-.06-.24-.13-.08-.08-.13-.18-.17-.28v-.63c-.03-.11-.07-.21-.13-.31-.1-.18-.2-.35-.32-.52-.15-.19-.32-.38-.49-.56-.16-.19-.34-.36-.52-.53l-.64-.59c-.23-.19-.46-.37-.7-.53-.17-.12-.35-.22-.53-.31-.23-.08-.47-.13-.71-.15-.29-.04-.58-.04-.87,0-.16.07-.31.16-.45.27l-.58.37c-.12.09-.26.17-.4.21-.15.05-.3.05-.45,0-.14-.06-.27-.15-.37-.26-.13-.08-.23-.2-.3-.33-.07-.27-.09-.54-.06-.82.02-.27.06-.54.12-.81,0-.18.12-.34.18-.52.06-.18.19-.51.26-.77.07-.26.12-.45.19-.68.07-.23.27-.78.4-1.19.13-.4.27-.68.38-1.01.07-.2.13-.41.17-.62.07-.47.08-.95.14-1.42.02-.26.06-.51.13-.76.03-.1.07-.19.13-.27.17-.2.36-.39.53-.57.13-.13.27-.25.43-.34.08-.03.18-.03.26,0,.13.04.24.11.33.21.13.11.24.23.33.37.18.25.31.55.49.78.1.14.22.26.36.37.08.08.18.14.28.19.11.05.23.1.34.13.17.06.35.11.52.15.16.02.32.02.47,0,.17,0,.33-.04.49-.09.11-.04.2-.1.28-.18.13-.11.25-.23.36-.36.09-.12.18-.27.27-.4l.49-.62c.2-.27.43-.53.62-.82.11-.17.2-.35.26-.55.06-.15.09-.31.09-.47.02-.13.02-.26,0-.39-.03-.07-.07-.14-.12-.2-.07-.11-.18-.18-.25-.28-.07-.1-.11-.21-.14-.32-.02-.36-.02-.73,0-1.09,0-.12.03-.25.08-.36.08-.17.17-.33.28-.47.06-.11.14-.21.24-.28.08-.02.16-.02.24,0,.08-.02.17-.02.25,0,.13.09.25.18.37.28l.57.45c.25.19.51.38.78.56.27.18.8.52,1.19.76.39.24.78.46,1.19.65.4.19.85.36,1.28.52.43.17,1.08.42,1.63.59.55.18,1.1.32,1.67.45.57.13.83.11,1.25.21.11.02.21.08.3.15.1.11.19.24.25.38.04.12.06.24.07.36.02.2.02.4,0,.59-.04.22-.1.44-.19.65-.04.2-.09.39-.17.58-.07.14-.18.25-.31.33h-.26c-.07,0-.14-.03-.2-.07-.11-.07-.21-.15-.31-.24-.11-.08-.23-.14-.36-.19-.15-.07-.31-.11-.47-.14-.28-.02-.57-.02-.85,0-.18,0-.36.04-.53.08-.2.07-.38.16-.56.27-.23.15-.42.37-.64.55-.29.21-.58.43-.84.68-.09.11-.14.23-.17.37-.03.06-.03.14,0,.2.05.08.12.14.2.17.23.12.47.23.71.32.4.13.81.23,1.19.34l.99.27c.15.04.3.11.44.19.06.05.11.11.13.19.02.15.02.3,0,.45,0,.34-.08.68-.11,1.02-.07.64-.12,1.29-.18,1.95.01.11.01.22,0,.33-.05.12-.13.24-.23.33-.13.12-.27.21-.43.27-.27.12-.55.19-.82.28-.27.09-.84.26-1.26.42-.31.13-.62.28-.91.44-.33.18-.64.39-.96.58l-1.32.7c-.44.25-.88.47-1.34.68-.39.16-.78.3-1.19.42-.35.12-.71.21-1.08.27v.02h0Z"/>
      <path id="svg_7" data-name="svg 7" class="cls-4" d="M96.42,216.94c-.14.13-.26.28-.37.44-.06.12-.12.25-.15.38-.02.05-.02.1,0,.15.04.06.1.11.18.13.23.03.47.03.7,0,.19-.03.38-.09.56-.15.28-.09.56-.23.84-.32l.99-.3c.13-.05.27-.1.39-.17.14-.09.27-.2.39-.31.08-.08.14-.18.18-.28.03-.11.03-.23,0-.34-.01-.07-.05-.14-.11-.19-.07-.06-.16-.1-.25-.11-.19-.02-.39-.02-.58,0-.25,0-.49,0-.74.07-.26.05-.52.12-.77.2-.23.08-.46.18-.66.31-.22.15-.42.32-.61.51v-.02s.01,0,.01,0ZM97.52,219.4c-.15.11-.28.23-.4.37-.19.17-.39.31-.56.49-.05.06-.08.14-.08.23,0,.05.03.09.07.12.07.02.15.02.23,0,.18.01.36.01.53,0,.23,0,.44-.12.66-.15.25,0,.5-.02.75-.06.09,0,.14-.12.21-.18.15-.13.29-.28.42-.44v-.18c-.03-.06-.07-.12-.12-.18-.06-.06-.13-.12-.21-.15-.11-.05-.23-.08-.36-.09-.17-.01-.33-.01-.5,0l-.26.06c-.13.04-.25.1-.37.17h-.01s0,.01,0,.01ZM98.8,227.7c-.06-.06-.11-.14-.13-.23-.07-.27-.09-.56-.14-.83-.05-.27-.12-.76-.2-1.19s-.14-.59-.23-.89c0-.11-.08-.21-.13-.32-.02-.1-.05-.2-.08-.3,0-.07-.1-.13-.11-.21s0-.5,0-.74c0-.07-.03-.13-.07-.18-.08-.09-.19-.16-.31-.2-.18-.06-.39-.02-.53.11-.09.14-.16.29-.2.45-.07.23-.12.46-.14.7-.03.28-.03.55,0,.83,0,.24.14.46.18.7.01.11-.01.22-.07.32-.1.16-.22.29-.37.4-.22.15-.46.28-.71.39-.39.17-.78.32-1.19.44-.42.11-.84.2-1.27.26-.39.05-.79.08-1.19.07-.12.02-.23.01-.34-.02-.12-.07-.23-.17-.3-.28-.05-.09-.08-.2-.06-.31,0-.07.07-.12.13-.14.06-.02.46-.18.69-.3.25-.15.5-.32.74-.5.23-.15.44-.31.65-.49.2-.2.39-.42.56-.65.1-.17.18-.35.24-.55.02-.11.02-.21,0-.32.02-.07.02-.14,0-.2-.07-.08-.2-.11-.26-.2-.06-.09-.09-.18-.1-.28v-7.82c-.02-.16-.04-.31-.08-.46-.07-.19-.13-.38-.18-.57-.02-.02-.02-.06,0-.08.12-.02.25-.02.37,0h.55c.18,0,.09,0,.12,0s.11-.25.19-.36c.11-.19.25-.37.4-.53.16-.16.33-.31.52-.44.2-.13.41-.24.63-.33.11-.05.23-.08.36-.07.06.02.11.07.12.14.04.18.04.36,0,.53,0,.36-.17.7-.21,1.06-.02.07-.02.14,0,.21,0,.07.11.17.19.19.23.08.48.12.72.12.24,0,.47-.02.7-.07.2,0,.4-.12.62-.15.21-.04.32,0,.46,0,.05-.01.1-.04.14-.08.09-.17.18-.34.25-.52l.27-.51c.05-.07.08-.14.1-.23,0-.07,0-.12-.08-.18-.08-.06-.07-.12-.13-.14-.17-.06-.35-.11-.53-.14-.13-.03-.27-.08-.39-.14-.07-.04-.13-.12-.14-.2-.03-.18-.03-.37,0-.55,0-.09.04-.17.1-.24.21-.17.43-.33.65-.47.21-.15.42-.34.64-.51.2-.14.4-.26.62-.37.11-.08.24-.13.38-.14.1.01.19.06.25.14.14.2.21.45.36.66.14.21.25.2.31.36.06.15,0,.47.09.7.07.15.16.29.26.42.05.09.1.17.15.25.09.14.21.27.3.43.05.09.08.19.07.28,0,.31-.14.61-.2.9-.01.27-.05.53-.1.79,0,.2-.23.37-.27.58-.04.26-.04.53,0,.8,0,.08.02.17.07.24.06.09.15.15.25.18.43.05.86.05,1.28,0,.4-.03.8-.11,1.19-.23.18-.04.34-.13.47-.25.12-.14.21-.31.26-.5.08-.28.13-.57.15-.85,0-.37.09-.75.14-1.12.05-.37.12-.83.15-1.26.02-.4.02-.79,0-1.19,0-.36-.11-.71-.11-1.07,0-.11.04-.21.12-.29.18-.16.38-.29.59-.4.11-.08.24-.14.37-.19.11-.02.21-.02.32,0,.05-.02.11-.02.17,0,.1.1.18.22.25.34.11.15.2.33.32.49.12.15.2.21.3.33.1.12.32.39.48.61.08.09.15.19.2.31.03.13.03.27,0,.4,0,.25-.12.49-.17.74l-.11.52c0,.25-.17.47-.2.72-.07.55-.08,1.12-.12,1.67-.02.1-.02.2,0,.3.03.06.09.1.15.12.33.09.66.12,1.01.19.2.03.41.07.61.12.15.05.29.12.4.23.12.1.22.23.29.38.04.15.04.31,0,.46,0,.08-.04.15-.09.2-.14.1-.3.17-.48.2-.24.04-.49.06-.74.06-.2-.01-.4-.01-.61,0-.21.05-.41.13-.59.24-.13.07-.23.17-.31.3-.1.17-.18.35-.23.53-.04.44-.05.88-.04,1.32-.13.83-.21,1.68-.33,2.51-.15,1.12-.34,2.23-.51,3.35-.08.64-.17,1.27-.23,1.91v.81c-.05.16-.14.31-.25.44-.15.21-.32.4-.51.58-.3.28-.61.55-.94.8-.17.16-.36.3-.56.43-.12.08-.26.13-.4.15-.13.05-.28.05-.42,0-.09-.04-.15-.13-.17-.23v-.94c0-.08,0-.25-.08-.37-.02-.07-.04-.14-.08-.2-.09-.12-.19-.24-.3-.36-.11-.14-.2-.3-.3-.44-.11-.18-.24-.35-.37-.51-.21-.24-.43-.47-.66-.69-.12-.11-.26-.19-.38-.31-.16-.15-.3-.32-.43-.51-.03-.07-.03-.15,0-.21.06-.13.12-.26.2-.38.07-.09.13-.21.23-.26.12-.04.24-.04.36,0,.11.02.22.06.31.12.12.08.21.2.34.28.2.1.41.19.63.27.24.1.49.18.75.24.18.02.36.02.53,0,.09-.01.18-.05.26-.11.08-.09.15-.19.18-.31.09-.27.15-.55.18-.83,0-.42.06-.84.07-1.26.01-.42,0-1.01,0-1.51,0-.07-.03-.13-.08-.17-.07-.04-.15-.04-.21,0-.18.06-.34.16-.49.28-.42.33-.81.7-1.19,1.06-.25.25-.52.49-.8.71-.15.09-.31.15-.49.17-.17.03-.35.03-.52,0-.07,0-.13-.09-.2-.13-.07-.04-.15,0-.24-.07-.08-.07-.08,0-.09,0-.02-.17-.02-.35,0-.52,0-.1.03-.21.08-.3.17-.21.38-.37.56-.56.18-.19.42-.49.62-.72.2-.24.58-.68.85-1.03.18-.23.35-.47.51-.71.17-.27.31-.57.46-.84.15-.27.27-.44.38-.66.03-.1.03-.2,0-.3-.02-.07-.07-.12-.13-.15-.21-.1-.42-.19-.64-.25l-.61-.12c-.2-.05-.4-.09-.61-.12-.1-.04-.2-.04-.3,0-.15.11-.28.25-.37.42-.16.38-.29.78-.38,1.19-.11.39-.2.79-.26,1.19-.08.46-.08.95-.17,1.42-.01.07-.06.14-.12.18-.13.05-.27.08-.4.11-.06.03-.13.06-.2.08-.11.02-.21.02-.32,0-.13,0-.24-.12-.37-.15-.06-.01-.12-.01-.18,0-.06,0-.11.03-.15.07-.02.05-.02.11,0,.15.03.1.07.19.13.27.21.3.46.56.68.85.21.3.33.57.5.85.17.28.33.49.46.75.05.11.08.23.08.36.02.08.02.17,0,.25-.04.08-.09.15-.15.21-.2.26-.42.52-.63.77-.15.17-.3.34-.47.49-.12.08-.25.14-.39.17-.1.02-.21.02-.31,0-.12.02-.25,0-.36-.07v-.05h0Z"/>
      <path id="svg_8" data-name="svg 8" class="cls-4" d="M135.68,216.03c-.12.1-.23.21-.33.33-.12.18-.18.39-.29.57-.11.18-.17.2-.23.31-.06.14-.12.28-.15.43-.01.05-.01.1,0,.15,0,.13,0,.25.07.37s0,.57,0,.84c.05.17.13.32.24.45.17.21.36.4.56.58.13.14.28.26.4.42.08.11.14.23.17.36.02.11.02.23,0,.34v.43c0,.14.09.26.11.39.01.18.01.36,0,.55,0,.23-.07.44-.07.66s0,.17.08.18.17,0,.24-.09c.09-.07.17-.16.23-.26.06-.14,0-.31.11-.44.07-.12.16-.23.26-.33.2-.26.44-.5.63-.76.07-.1.12-.22.14-.34.02-.21.02-.41,0-.62-.03-.5-.03-1,0-1.5.04-.35.1-.69.18-1.03,0-.33.07-.68.08-1.02.02-.29.02-.58,0-.87-.03-.15-.09-.29-.17-.42-.06-.08-.14-.14-.24-.17-.18-.02-.36-.02-.53,0-.2-.02-.4-.02-.59,0-.12.03-.22.08-.32.15-.13.09-.25.2-.37.31l-.2.02h0ZM136.69,229.34c.03.15.03.3,0,.45-.11.17-.23.34-.37.49-.09.16-.19.3-.32.43-.14.09-.31.14-.47.15-.1.03-.21.03-.31,0-.14-.08-.26-.2-.36-.33-.11-.16-.2-.32-.27-.5-.15-.31-.29-.63-.4-.96-.11-.28-.18-.56-.23-.85-.03-.24-.03-.48,0-.71.02-.16.07-.32.14-.46.13-.23.33-.4.49-.62.15-.21.38-.44.31-.77-.02-.1-.06-.18-.13-.25-.12-.09-.26-.15-.42-.17-.21-.01-.43-.01-.64,0-.15.03-.31.03-.46,0-.06-.02-.11-.08-.12-.14-.02-.16-.02-.32,0-.47.02-.15.05-.3.11-.45.07-.28.15-.58.24-.87.12-.33.2-.67.26-1.02.05-.39.05-.79,0-1.19,0-.38-.32-.55-.52-.84-.2-.3-.08-.33-.2-.46-.12-.13-.44-.37-.64-.58-.12-.11-.2-.24-.26-.39-.04-.14-.04-.3,0-.44,0-.12.06-.24.08-.37.03-.25.07-.49.12-.74.03-.11.07-.22.12-.32,0-.2.08-.42.14-.62.1-.29.23-.57.37-.84.14-.25.29-.5.45-.74.3-.32.43-.76.36-1.19v-.4c0-.37-.15-.74-.21-1.12-.02-.1-.02-.21,0-.31.03-.08.09-.15.15-.2.09-.08.18-.15.28-.21.07-.01.14-.01.21,0,.06-.02.12-.02.18,0,.1.07.18.17.24.27.07.13.12.27.18.4.06.13.09.14.14.21l.49.76c.12.15.25.31.38.45.13.14.27.3.42.44.05.05.11.09.18.13.07.04.15.06.23.07.16.01.32.01.49,0,.21,0,.42-.13.63-.17s.33,0,.5,0c.27-.02.54-.07.81-.14.25-.09.5-.2.74-.32.43-.27.83-.58,1.19-.95.21-.2.43-.46.63-.69.18-.23.37-.44.59-.63.15-.13.31-.23.49-.31.19-.06.38-.09.57-.09.13-.01.26-.01.39,0,.13.03.26.07.39.12l.39.2c.08.05.16.12.21.2.06.09.09.21.08.32-.04.21-.12.4-.23.58-.1.13-.22.24-.34.34-.05.04-.11.08-.17.11-.17.11-.34.2-.32.44,0,.2.04.4.09.59,0,.11.05.22.12.31.11.07.24.12.37.15.17.09.34.16.52.23.32.06.65.11.99.13.16.01.33.04.49.07.22.06.43.14.63.26.2.15.38.32.53.52.11.14.2.3.26.47.06.11.1.22.12.34.04.13.04.26,0,.39,0,.12-.2.17-.27.27s-.08.2-.14.28c-.03.08-.09.15-.15.2-.1.08-.21.13-.33.14h-1.01c-.24.04-.47.1-.7.18-.24.06-.46.15-.69.23-.08.02-.16.02-.24,0-.15.05-.32.02-.44-.08-.08-.12-.13-.27-.13-.42,0-.13.08-.24.11-.37.02-.14.02-.28,0-.42-.02-.16-.07-.32-.13-.46-.07-.14-.15-.27-.24-.4-.12-.25-.31-.46-.56-.59-.15-.09-.31-.17-.49-.21-.26-.05-.52-.07-.78-.08-.17-.03-.35-.06-.52-.07-.13-.02-.25-.02-.38,0-.12.05-.22.13-.31.23-.13.12-.24.26-.32.42-.03.14-.03.29,0,.43,0,.15.03.29.09.43.09.14.21.27.36.37.2.16.42.3.65.42.26.12.56.17.82.27.22.08.43.18.63.3.13.08.25.18.34.3.1.14.18.3.24.46.08.22.15.44.2.66,0,.19.11.39.17.59.06.2.08.47.17.71h.12s.1.01.14,0c.08,0,.15-.11.25-.14l.27-.08c.19,0,.38-.14.57-.21.13-.06.26-.11.39-.14.1-.04.22-.04.32,0,.12.06.21.16.26.27.06.12.09.26.09.39,0,.11-.05.21-.12.28-.11.12-.27.15-.39.24-.12.08-.5.3-.74.47-.19.16-.37.33-.52.52-.1.1-.17.23-.2.37-.05.42-.05.84,0,1.26,0,.08.11.13.13.21.02.08,0,.32.07.46.06.13.13.24.21.36.06.09.14.17.23.24.1.03.2.03.3,0,.15,0,.28-.19.44-.2.56-.04,1.13-.04,1.7,0,.08,0,.16.04.21.11.09.2.14.42.15.64.09.65.12,1.31.09,1.97,0,.12-.13.2-.24.27-.11.06-.23.11-.36.14-.06.06-.14.11-.21.14-.1.02-.2.02-.3,0-.15-.02-.29-.05-.43-.09-.17-.04-.35-.07-.52-.08-.34-.02-.69-.02-1.03,0-.22.01-.45.05-.66.11-.2.06-.38.19-.58.25-.2.06-.47.07-.7.15-.18.09-.36.19-.52.31l-.82.55c-.23.17-.43.39-.68.55-.08.03-.18.03-.26,0-.12-.03-.23-.08-.32-.15-.11-.08-.21-.17-.31-.26l-.34-.33-.2-.13-.2-.11c-.13-.02-.25-.05-.37-.11-.08-.04-.13-.12-.15-.2-.05-.15-.08-.31-.07-.47,0-.12.05-.23.12-.33.09-.11.21-.19.33-.25.17-.08.36-.11.52-.19.18-.07.36-.17.52-.27l.61-.39c.23-.13.47-.24.7-.37.15-.07.29-.17.42-.28.09-.11.15-.25.15-.39.02-.21.02-.42,0-.63.02-.18.02-.36,0-.53-.05-.1-.12-.2-.2-.28-.06-.09-.13-.17-.21-.25-.09-.07-.19-.13-.3-.18-.09-.05-.19-.07-.3-.07-.16,0-.32.02-.48.06-.24,0-.47.13-.72.17-.07.03-.15.03-.23,0-.1-.06-.18-.14-.23-.25-.03-.1-.03-.21,0-.31.03-.18.11-.35.23-.49.12-.12.26-.21.42-.28.23-.14.47-.27.69-.42.14-.1.28-.22.4-.34.14-.15.24-.32.31-.51.02-.19.02-.38,0-.57.02-.22.02-.44,0-.66-.06-.3-.18-.59-.33-.85-.09-.14-.2-.26-.33-.37-.12-.08-.25-.13-.39-.14-.15,0-.31.02-.45.07-.15.04-.28.12-.38.24-.12.17-.21.36-.26.56-.1.34-.13.69-.19,1.02-.06.33-.08.66-.13.98,0,.1-.03.21-.06.31-.12.31-.29.59-.39.9-.11.31-.2.69-.32,1.02-.12.33-.24.65-.37.97l-.29.75c-.08.24-.14.47-.23.71-.13.29-.25.59-.34.9-.04.3-.04.6,0,.9,0,.21.11.43.12.65.01.23,0,.33-.07.51-.07.18-.08.25-.08.37h.02,0Z"/>
      <path id="svg_9" data-name="svg 9" class="cls-4" d="M168.32,217.78c.32-.03.63-.09.94-.19.26-.09.51-.23.72-.4.22-.22.41-.47.57-.74.17-.27.26-.57.4-.85,0-.06.11-.1.13-.15.04-.11.07-.22.08-.33.07-.34.15-.68.21-1.02.06-.34.17-.96.23-1.45.06-.49.08-.88.15-1.31,0,0,.06-.11.11-.11.09,0,.18.03.26.07.26.09.51.21.78.31.27.09.65.18.97.28.32.11.59.25.89.38.3.13.49.25.74.36.25.11.5.19.75.28.26.11.54.21.82.27.3.05.61.05.91,0,.31-.1.61-.23.89-.39.2-.09.39-.21.56-.34.34-.33.63-.72.95-1.08l.7-.78c.21-.2.41-.41.59-.63.05-.09.08-.19.07-.3,0-.06-.04-.12-.1-.14-.26-.03-.51-.03-.77,0-.52,0-1.04.17-1.57.2-.77.06-1.55.07-2.37.06-.67,0-1.35-.04-2.02-.12-.6-.07-1.2-.18-1.78-.34-.32-.09-.62-.21-.9-.38-.2-.14-.37-.3-.51-.5-.11-.17-.18-.35-.21-.55-.04-.16-.04-.33,0-.49.04-.13.1-.24.18-.34.29-.4.59-.79.9-1.19s.58-.66.88-.98c.11-.12.27-.2.36-.34.04-.1.04-.22,0-.32,0-.19-.18-.37-.23-.56-.04-.22-.08-.44-.1-.66,0-.37-.13-.72-.2-1.08-.04-.33-.1-.66-.19-.98-.03-.07-.1-.11-.18-.12-.12.01-.23.06-.32.14-.17.16-.32.34-.45.53-.05.06-.09.13-.12.2-.03.22-.07.44-.12.66-.08.15-.18.29-.31.4-.21.24-.45.44-.68.66-.23.23-.4.46-.64.66-.04.02-.08.02-.12,0v-.08c0-.22-.03-.44-.07-.65-.09-.3-.2-.58-.32-.87-.12-.3-.23-.59-.37-.87-.14-.25-.3-.49-.47-.71-.11-.16-.25-.3-.4-.42-.16-.09-.32-.17-.5-.23-.14,0-.3-.13-.45-.18-.14-.06-.3-.11-.45-.13-.14-.02-.28-.02-.42,0-.22.02-.43.07-.63.15-.07.06-.13.14-.15.24-.02.05-.02.11,0,.17.17.37.36.72.52,1.09.17.37.42.94.63,1.41l.43.93c.15.3.28.6.39.91.04.15.06.31.06.46,0,.3-.04.6-.11.89-.07.13-.16.24-.26.33-.32.32-.66.61-1.03.88-.32.2-.65.36-1,.5-.19.05-.38.12-.57.2-.08.04-.14.11-.15.19,0,.07.03.14.09.17.18.11.39.12.57.23.12.07.22.17.3.28.17.18.31.38.47.56.17.18.39.4.59.59.12.13.26.24.4.34.1.04.2.06.31.06.1,0,.2-.04.29-.11.2-.18.38-.38.55-.59.09-.13.19-.26.3-.37h.15c.06.04.1.11.12.18.08.25.14.52.17.78.03.4.03.79,0,1.19,0,.28-.04.55-.1.82-.07.27-.16.53-.29.77-.13.28-.29.54-.46.8-.17.24-.37.47-.58.68-.18.19-.38.35-.59.5-.09.06-.19.1-.3.11-.36.06-.71,0-1.07.11-.17,0-.34.05-.5.13-.17.13-.3.3-.39.49-.04.09-.04.19,0,.27.06.12.12.23.2.33.1.18.22.36.36.52.08.08.18.14.29.18.18.08.37.14.56.19.19.07.39.15.59.21.19.05.39.09.59.11.28.01.56,0,.83-.06h0Z"/>
      <path id="svg_10" data-name="svg 10" class="cls-4" d="M202.04,190.68c-.15.2-.28.42-.38.65-.14.32-.27.64-.4.97-.13.33-.28.62-.39.95,0,.14,0,.31-.08.45-.06.15-.11.31-.15.46,0,.13.03.26.1.38.03.13.09.26.19.36h.26c.4-.07.8-.16,1.19-.27.33-.09.65-.21.95-.36.25-.14.48-.31.69-.5.17-.14.31-.31.43-.5.11-.19.17-.39.19-.61.04-.22.04-.44,0-.65-.04-.18-.11-.35-.2-.51-.1-.16-.23-.3-.38-.42-.16-.12-.34-.22-.53-.3-.19-.07-.39-.12-.59-.18-.2-.06-.24-.07-.36-.08-.09-.02-.17-.02-.26,0-.1.01-.19.05-.26.12v.02s.01,0,.01,0ZM196.32,186.19c-.13.02-.25.06-.36.13v.14c.02.13.06.25.13.36.05.07.13.12.21.14.09,0,.17-.04.24-.09.07-.05.12-.12.15-.2.02-.07.02-.14,0-.2.02-.06.02-.13,0-.19-.03-.03-.07-.05-.11-.06-.08-.01-.16-.01-.24,0l-.04-.02h0ZM193.28,181.89c0,.05,0,.1,0,.15,0,.07.06.13.07.2,0,.1,0,.19,0,.28.02.08.05.15.11.2.05.09.12.17.2.24.09.08.19.14.3.19.04.02.09.02.13,0,.09-.05.16-.12.23-.2.05-.08.08-.17.08-.26.02-.13.02-.25,0-.38-.07-.14-.15-.28-.24-.4-.05-.1-.12-.19-.2-.27-.07-.02-.14-.02-.21,0-.07-.01-.14-.01-.21,0-.05.01-.09.04-.12.07-.04.06-.07.13-.09.2l-.04-.02h0ZM194.38,184.27c-.07.03-.13.07-.18.13-.02.06-.02.13,0,.19,0,.14.03.29.07.43.04.12.11.23.19.32.06.08.13.15.21.2.07.05.15.07.23.07.07,0,.13-.03.18-.08.06-.07.09-.15.11-.24.02-.12.02-.24,0-.36-.03-.18-.08-.35-.15-.51-.04-.07-.09-.13-.17-.17-.05-.04-.11-.06-.18-.06-.09,0-.17.03-.25.07h-.06ZM197.55,192.97c.06.16.1.32.12.49.02.17.02.35,0,.52-.01.11-.05.22-.11.32-.04.09-.1.16-.19.2-.12.07-.25.11-.39.12-.18.04-.37.04-.55,0-.19-.09-.37-.21-.53-.34-.19-.14-.38-.3-.55-.47-.15-.18-.28-.36-.4-.56-.17-.26-.34-.51-.5-.77-.08-.18-.17-.35-.27-.52-.09-.14-.25-.26-.36-.4-.11-.14-.21-.33-.36-.47-.19-.19-.4-.37-.62-.53-.13-.09-.26-.18-.39-.26l-.52-.43c-.23-.2-.45-.39-.65-.61-.08-.08-.14-.17-.18-.27v-.08c.14-.01.28-.01.42,0,.11-.02.21-.02.32,0,.08.04.16.09.24.14.24.09.49.15.71.26.23.11.4.27.61.39s.66.32.99.47c.21.12.44.24.66.33h.06c.01-.1.01-.19,0-.28-.04-.08-.08-.15-.13-.23-.02-.1-.05-.2-.09-.3-.06-.07-.14-.12-.23-.15-.15-.09-.31-.15-.45-.25-.17-.11-.33-.24-.47-.38-.13-.14-.25-.28-.36-.44-.09-.14-.17-.31-.27-.44-.17-.19-.35-.37-.55-.53-.15-.14-.33-.24-.49-.36s-.25-.27-.4-.38c-.15-.11-.36-.15-.52-.25-.14-.06-.26-.14-.38-.23-.16-.13-.31-.28-.45-.43-.19-.16-.37-.33-.53-.51-.02-.05-.02-.1,0-.14.08-.09.18-.15.3-.18.26-.04.51-.04.77,0,.2,0,.41.02.61.07.14.07.26.18.36.3.24.24.47.47.69.71.21.24.4.53.62.78.21.25.49.55.75.81.2.23.42.45.64.66.14.11.29.2.45.28.07.02.14.02.2,0,.06,0,.12-.02.15-.07.06-.09.09-.2.09-.31,0-.12-.02-.24-.07-.36-.03-.1-.07-.19-.13-.27-.15-.17-.31-.32-.49-.46-.11-.11-.24-.19-.34-.3-.05-.05-.1-.11-.14-.18-.13-.21-.24-.44-.37-.65-.12-.21-.27-.4-.43-.58-.17-.18-.34-.35-.52-.51-.16-.18-.32-.35-.5-.51-.23-.23-.48-.44-.74-.63-.3-.21-.62-.42-.94-.62-.32-.2-.46-.27-.7-.4-.24-.13-.43-.23-.63-.36-.04-.03-.07-.08-.08-.13-.02-.07-.02-.14,0-.21.07-.09.2-.13.3-.19l.25-.17c.06-.02.13-.02.19,0,.06.02.11.05.15.09l.51.51c.09.08.19.15.3.21.14.09.29.17.45.23.14.05.27.09.42.12.06.02.12.02.18,0,.08-.04.15-.1.19-.18.02-.09.02-.19,0-.28.02-.15.02-.31,0-.46,0-.09-.13-.17-.15-.26-.02-.09,0-.25,0-.37-.05-.1-.12-.19-.2-.27-.06,0-.11-.14-.18-.18-.19-.08-.39-.13-.59-.17h-.44c-.1,0-.2-.05-.29-.12-.03-.07-.03-.15,0-.21.03-.11.09-.2.18-.27.09-.06.18-.11.29-.14,0,0,.07-.07.12-.09.04-.04.09-.07.14-.09.14,0,.31-.07.45-.13.14-.06.15,0,.19-.11.02-.08.02-.17,0-.25.02-.09.02-.18,0-.27,0-.08-.15-.13-.2-.21-.05-.08,0-.14,0-.2s-.1-.07-.12-.13c-.06-.12-.09-.24-.11-.37-.02-.16.01-.32.08-.46.05-.11.16-.19.29-.2.11,0,.2.07.3.14.19.13.36.27.51.44.17.21.32.43.44.68.09.2.12.44.2.65.03.13.07.25.14.36.12.16.26.32.42.45.18.17.37.31.57.46.2.15.34.2.49.33.12.11.22.23.31.37l.52.72c.16.22.34.42.52.62.09.1.2.18.32.24.09.05.19.08.3.1h.31c.06-.02.13-.02.19,0,.06,0,.09.09.15.14.05.01.1.03.15.06.05.02.09.05.12.08.02.06.02.12,0,.18-.08.07-.17.14-.26.19-.12.07-.23.14-.33.24-.1.11-.17.24-.21.38-.03.16-.03.33,0,.5.02.09.07.17.12.24.03.09.07.17.12.25.04.04.09.06.14.06.1-.01.19-.05.27-.1.12-.09.23-.19.32-.3.07-.08.13-.18.17-.28.05-.14.07-.28.08-.43v-.5c0-.17.09-.26.11-.39.02-.11.02-.22,0-.33-.03-.13-.09-.26-.15-.38-.05-.05-.12-.09-.19-.11h-.3c-.1,0-.13,0-.15-.08-.05-.11-.07-.23-.06-.34v-.66c-.02-.14-.07-.29-.14-.42-.06-.14-.13-.28-.21-.42-.04-.04-.08-.07-.13-.08-.06-.02-.12-.02-.18,0-.1.06-.19.13-.27.2,0,0-.08.08-.14.1-.11.03-.23.03-.34,0-.12-.05-.23-.14-.3-.26-.05-.12-.05-.26,0-.38,0-.12.13-.21.19-.32.06-.11.15-.28.21-.44.06-.19.06-.4,0-.59-.06-.11-.14-.21-.23-.3-.05-.03-.1-.06-.15-.07-.06-.02-.13-.02-.19,0-.12.05-.23.13-.32.21-.2.18-.38.38-.58.56-.05.07-.12.12-.2.15-.07.02-.14.02-.21,0-.1-.07-.19-.16-.25-.27-.04-.09-.04-.19,0-.28.02-.1.07-.19.13-.27.13-.15.26-.29.4-.42.14-.14.3-.27.44-.43.14-.15.17-.28.27-.4.18-.18.38-.34.59-.49.15-.12.33-.21.51-.26.18-.03.37-.03.55,0,.16,0,.32.03.47.08.14.06.27.15.38.26.11.08.19.18.26.3.04.11.04.22,0,.33,0,.11-.13.17-.15.27-.03.18-.03.36,0,.53.01.11.05.21.1.31.15.31.32.62.5.91.18.35.39.69.61,1.02.18.26.37.5.58.74.05.04.1.07.17.09.05.02.11.02.15,0,.11-.13.21-.27.29-.42.12-.24.23-.49.33-.75.11-.26.11-.37.18-.53.05-.14.13-.27.23-.38.1-.13.23-.25.37-.34.08-.06.18-.09.28-.08.17-.02.35-.02.52,0,.27,0,.53.17.79.24.26.07.46.08.69.17.14.05.26.12.36.23.11.09.19.22.21.37.03.25,0,.51-.08.75-.17.41-.36.8-.57,1.19-.15.33-.33.65-.46,1-.13.34-.12.5-.2.74-.04.13-.1.25-.18.36-.08.12-.18.22-.31.3-.09.03-.18.03-.27,0-.1,0-.2-.02-.3-.07-.14-.1-.26-.21-.36-.34-.11-.12-.17-.27-.27-.39-.03-.07-.09-.12-.15-.14-.13-.04-.26-.04-.39,0-.16.05-.3.14-.42.26-.09.12-.18.26-.24.4-.11.18-.18.37-.3.53-.13.17-.26.33-.42.47-.28.28-.59.56-.88.87-.14.13-.26.28-.37.44-.16.29-.29.59-.42.9-.1.23-.17.47-.23.71-.04.25-.04.5,0,.75.02.1.07.19.14.25.08.04.17.04.25,0,.12-.04.24-.11.33-.2.13-.11.25-.24.34-.38.12-.18.2-.38.32-.56.05-.1.12-.19.19-.27.15-.18.33-.33.49-.51.07-.09.14-.18.2-.27.05-.11.09-.23.11-.36v-.97c0-.1.02-.19.07-.27.09-.1.21-.18.33-.24.19-.08.4-.14.61-.17.22-.02.44-.02.66,0,.14,0,.28.03.4.08.13.07.24.17.33.28.08.05.14.13.17.23.02.32.02.65,0,.97.01.11.03.22.07.33.02.09.06.18.12.26.04.06.09.11.15.14.04.02.09.02.13,0,.15-.16.29-.33.42-.5.23-.28.44-.59.68-.87.28-.34.58-.66.9-.95.17-.16.38-.3.59-.39.17-.07.35-.12.53-.12.14.02.28.07.4.13l.42.15c.19.06.38.13.56.21.12.07.22.18.28.3.03.08.03.18,0,.26-.04.1-.1.18-.18.25-.28.26-.58.5-.88.75-.3.25-.85.71-1.27,1.08-.26.24-.51.51-.74.78-.09.11-.15.23-.19.36-.03.07-.03.15,0,.23.05.14.11.27.2.38.18.24.38.47.59.69.31.28.68.51.96.81.16.19.31.4.44.62l.37.56c.15.18.27.39.36.61.06.39.06.79,0,1.19-.03.19-.09.38-.15.57-.02.12-.08.22-.17.31-.25.16-.51.29-.78.39-.38.15-.77.31-1.19.44-.42.13-.76.21-1.19.31l-1.03.27c-.36.09-.7.25-1.06.31-.21.03-.42.03-.63,0-.17.01-.33.01-.5,0-.15-.03-.29-.07-.43-.13-.1-.06-.19-.12-.27-.2-.1-.15-.16-.31-.2-.49-.07-.13-.12-.28-.14-.43-.02-.26-.02-.53,0-.8,0-.17.03-.34.08-.51.06-.24.14-.47.24-.7.12-.31.26-.62.39-.93.13-.31.18-.51.27-.76.09-.25.14-.4.23-.59.08-.19.12-.19.18-.3.14-.22.27-.45.38-.69.07-.15.11-.31.13-.47.02-.14.02-.28,0-.42-.02-.16-.06-.32-.12-.46-.06-.12-.14-.23-.24-.33-.05-.05-.1-.09-.17-.12-.07-.02-.15-.02-.23,0-.05-.02-.11-.02-.17,0-.09.08-.17.17-.23.27-.1.21-.18.43-.25.65-.11.27-.18.56-.3.83-.06.14-.14.27-.24.39-.16.19-.33.37-.52.52-.11.11-.24.2-.38.27-.05.04-.11.06-.18.06-.13.02-.27.02-.4,0-.09.02-.18.02-.27,0-.13-.09-.25-.19-.36-.3-.14-.14-.27-.3-.42-.45-.1-.12-.21-.23-.33-.33h-.11c-.07.07-.13.14-.18.23-.12.18-.24.37-.37.55-.13.18-.14.11-.14.19,0,.08.03.16.1.21.26.28.57.51.83.8.2.23.39.46.56.71.12.2.23.41.32.63h0Z"/>
    </g>
  </g>
  <g id="_图层_8" data-name="图层 8">
    <path class="cls-3" d="M130.85,85.73l-14.38,14.38-8.22-8.22-4.11,4.11,12.33,12.33,18.49-18.49-4.11-4.11Z"/>
  </g>
</svg>